<svg fill="none" xmlns="http://www.w3.org/2000/svg" viewBox="0 0 145 130" aria-hidden="true" role="img"><g clip-path="url(#clip0_11368_50389)"><path d="M36.858 0h-.174c0 .087.087 0 .174 0h-7.852c-1.483 0-2.617 1.396-2.617 3.054V93.18c2.53 1.745 5.147 3.403 7.852 4.886 1.745.96 3.49 1.832 5.235 2.618V2.704c0-1.483-1.222-2.617-2.618-2.704z" fill="#BC5118"></path><path d="M36.86 0h-.611a2.598 2.598 0 00-2.007 2.356v95.71a146.93 146.93 0 005.235 2.618V2.704c0-1.483-1.221-2.617-2.617-2.704z" fill="url(#paint0_linear_11368_50389-uid-10)"></path><path d="M36.86 47.025l2.617 3.403v-4.276l-2.618.873z" fill="#51200F"></path><path d="M111.019 39H38.865c-1.483 0-2.617 1.396-2.617 3.054v3.053c0 1.658 1.221 3.054 2.617 3.054h72.067" fill="url(#paint1_linear_11368_50389-uid-10)"></path><path d="M67.308 48.161c-.436-.698-1.134-1.221-2.006-1.483-1.047-.35-2.182-.35-3.316-.087l-2.18.523c.435-1.309.784-2.617 1.133-4.013L61.986 39H42.792l-.087.175c-1.484 2.442-2.094 5.322-1.833 8.288l-.349.61 26.785.088z" fill="#51200F"></path><path d="M36.858 0h-7.852c-1.483 0-2.617 1.396-2.617 3.054V93.18c2.53 1.745 5.147 3.403 7.852 4.886V3.054C34.154 1.396 35.375 0 36.858 0zm82.362 0h-.175c0 .087.087 0 .175 0h-7.853c-1.483 0-2.617 1.396-2.617 3.054v97.63c2.705-1.222 5.322-2.618 7.852-4.101a53.913 53.913 0 005.235-3.403V2.705c0-1.484-1.134-2.618-2.617-2.705z" fill="#BC5118"></path><path d="M119.22 0c-1.483 0-2.617 1.221-2.617 2.617v93.879a53.795 53.795 0 005.234-3.403V2.705c0-1.484-1.134-2.618-2.617-2.705z" fill="url(#paint2_linear_11368_50389-uid-10)"></path><path d="M118.434 84.804c-1.134-1.047-2.442-1.92-3.926-2.443-1.832-.785-3.751-1.309-5.758-1.658v19.98c2.705-1.222 5.322-2.618 7.852-4.1v-.175l.611-.262a84.816 84.816 0 004.624-3.054v-4.45a46.48 46.48 0 00-3.403-3.838z" fill="#51200F"></path><path d="M131.435 120.053c0-1.047 0-2.094-.087-3.229-.349-4.449-1.309-8.724-2.618-12.999l-1.134-3.578c-.96-2.966-2.355-5.845-4.188-8.288-2.006-2.705-4.449-5.148-7.328-6.98-5.846-3.926-13-5.584-19.98-4.537l-2.705.35c-10.819 1.482-21.899-.175-31.845-4.974-3.839-1.832-8.027-2.792-12.215-2.792a28.42 28.42 0 00-5.41.524l2.793-16.316-.35-.261a17.284 17.284 0 00-11.778-3.665L18.188 75.993c-1.658 2.268-2.792 4.798-3.49 7.416A20.49 20.49 0 0014 88.643a23.29 23.29 0 0010.034 18.846l10.993 7.678.96 4.362.523 2.53c.96 4.624 5.06 7.94 9.772 7.94h75.12c5.583.087 10.033-4.363 10.033-9.946z" fill="url(#paint3_radial_11368_50389-uid-10)"></path><path d="M61.638 75.905c.35.174.785.349 1.135.523 1.483.698 3.228 0 3.926-1.483.174-.349.261-.698.261-1.047l.524-10.644 23.295 1.134-.61 13.349c-.088 1.658 1.133 2.966 2.791 3.054h.524l2.704-.35c0 8.027-6.194 14.745-14.221 15.443-3.577.262-7.154-.261-10.47-1.745l-.96-.436a15.543 15.543 0 01-9.16-16.926l.261-.872z" fill="url(#paint4_radial_11368_50389-uid-10)"></path><path d="M91.65 80.44c-.96-.523-1.57-1.483-1.483-2.704l.61-13.35-15.79-.784c-3.752 5.409-2.531 12.825 2.878 16.664 4.188 2.966 9.685 3.053 13.785.174z" fill="#A06069"></path><path d="M46.718 57.32l-.35-.261a17.197 17.197 0 00-11.69-3.665L26.302 84.63l1.832-2.094c4.188-4.624 9.684-7.765 15.792-8.9l2.792-16.315z" fill="url(#paint5_linear_11368_50389-uid-10)"></path><path d="M63.383 46.676c-1.047-.349-2.182-.349-3.229-.174l-2.268.523a33.31 33.31 0 001.832-4.013l1.745-4.1h2.617l-.349-.96c-.523-1.397-1.832-2.356-3.315-2.356-.96 0-1.832.349-2.443 1.047-.523-.611-1.221-1.047-2.094-1.047-.96 0-1.92.436-2.617 1.134-.611-.698-1.396-1.134-2.356-1.134s-1.832.436-2.443 1.221c-.523-.698-1.396-1.047-2.268-1.047-.873 0-1.745.436-2.269 1.134l-1.832 2.356c-1.92 2.443-3.054 5.322-3.315 8.289l-4.188 5.845a17.284 17.284 0 0111.778 3.665l.35.261.348-2.094 1.483.175c3.578.349 7.155-.96 9.685-3.577.262-.262.523-.35.872-.35l4.624-.086c.96 0 1.658-.786 1.658-1.745.087-1.396-.785-2.53-2.006-2.967z" fill="url(#paint6_radial_11368_50389-uid-10)"></path><path d="M63.732 51.213c.96 0 1.657-.785 1.657-1.745a2.905 2.905 0 00-2.093-2.792c-1.047-.35-2.182-.35-3.229-.175l-2.268.524c-.61 1.134-1.221 2.355-1.832 3.49l-2.792 4.362c1.92-.61 3.664-1.658 5.06-3.14.262-.263.524-.35.873-.35l4.624-.174z" fill="url(#paint7_radial_11368_50389-uid-10)"></path><path d="M38.953 52.085l-.174-2.181c-.088-.785 0-1.57 0-2.443l-4.188 5.846c1.57-.088 3.14 0 4.624.261l-.262-1.483z" fill="url(#paint8_radial_11368_50389-uid-10)"></path><path d="M57.449 52.434l-9.597-1.744-.786 4.536 1.484.175a11.913 11.913 0 008.899-2.967z" fill="url(#paint9_radial_11368_50389-uid-10)"></path><path d="M63.732 51.213c.96 0 1.657-.785 1.657-1.745a2.905 2.905 0 00-2.093-2.792c-1.047-.35-2.182-.35-3.229-.175l-2.268.524c-.61 1.134-1.221 2.355-1.832 3.49l-2.792 4.362c1.92-.61 3.664-1.658 5.06-3.14.262-.263.524-.35.873-.35l4.624-.174z" fill="url(#paint10_radial_11368_50389-uid-10)"></path><path d="M64.08 38.998l-.349-1.047c-.261-.61-.61-1.134-1.134-1.57l-1.134 2.617h2.617z" fill="url(#paint11_radial_11368_50389-uid-10)"></path><path d="M55.181 41.005l2.182-3.664c.174-.262.349-.524.61-.698-.523-.611-1.221-1.047-2.094-1.047-.96 0-1.92.436-2.617 1.134-.087.174-.262.262-.349.436l-2.268 3.403 4.536.436z" fill="url(#paint12_radial_11368_50389-uid-10)"></path><path d="M50.645 40.569l2.268-3.403c.087-.174.262-.262.349-.436-.61-.698-1.396-1.134-2.356-1.134s-1.832.436-2.443 1.221c-.087.087-.087.175-.174.262l-2.007 3.315 4.363.175z" fill="url(#paint13_radial_11368_50389-uid-10)"></path><path d="M48.463 36.816c-.523-.698-1.396-1.047-2.268-1.047-.873 0-1.745.437-2.269 1.135l-1.832 2.355c-.262.262-.436.611-.61.873l4.885.262 2.007-3.316c0-.087.087-.174.087-.262z" fill="url(#paint14_radial_11368_50389-uid-10)"></path><path d="M79.785 73.9c10.36 0 18.758-8.4 18.758-18.759 0-10.36-8.399-18.758-18.758-18.758-10.36 0-18.759 8.398-18.759 18.758s8.399 18.758 18.759 18.758z" fill="url(#paint15_radial_11368_50389-uid-10)"></path><path d="M95.662 64.999c-.436-.174-1.658-.785-3.751-3.315l-.873 1.832.175 6.456A17.375 17.375 0 0095.663 65z" fill="#092622"></path><path d="M81.965 80.53c6.65 0 12.04-5.391 12.04-12.04 0-6.65-5.39-12.04-12.04-12.04-6.65 0-12.04 5.39-12.04 12.04 0 6.649 5.39 12.04 12.04 12.04z" fill="url(#paint16_radial_11368_50389-uid-10)"></path><path d="M131.434 120.053c0-1.047 0-2.094-.087-3.228-.349-4.45-1.309-8.725-2.617-13l-.175-.436-19.805.087c.698 8.899.436 17.798-.785 26.523h13.436c5.584.087 10.033-4.362 10.033-9.946z" fill="url(#paint17_radial_11368_50389-uid-10)"></path><path d="M14.611 93.704c.088.349.175.698.262.96 1.483 5.147 4.624 9.771 9.161 12.912l10.993 7.678-5.67-27.309-14.746 5.759z" fill="url(#paint18_radial_11368_50389-uid-10)"></path></g><defs><radialGradient id="paint3_radial_11368_50389-uid-10" cx="0" cy="0" r="1" gradientUnits="userSpaceOnUse" gradientTransform="translate(73.17 60.96) scale(86.9316)"><stop offset=".71" stop-color="#14A800"></stop><stop offset=".88" stop-color="#138000"></stop><stop offset="1" stop-color="#126B00"></stop></radialGradient><radialGradient id="paint4_radial_11368_50389-uid-10" cx="0" cy="0" r="1" gradientUnits="userSpaceOnUse" gradientTransform="translate(69.202 73.722) scale(22.2544)"><stop offset=".52" stop-color="#F7B0B2"></stop><stop offset=".62" stop-color="#F2AEA7"></stop><stop offset=".78" stop-color="#E6A98B"></stop><stop offset="1" stop-color="#D1A15D"></stop></radialGradient><radialGradient id="paint6_radial_11368_50389-uid-10" cx="0" cy="0" r="1" gradientUnits="userSpaceOnUse" gradientTransform="rotate(-14.342 183.447 -176.535) scale(17.767 11.7701)"><stop offset=".521" stop-color="#F7B0B2"></stop><stop offset=".617" stop-color="#F2AEA7"></stop><stop offset=".783" stop-color="#E6A98B"></stop><stop offset="1" stop-color="#D1A15D"></stop></radialGradient><radialGradient id="paint7_radial_11368_50389-uid-10" cx="0" cy="0" r="1" gradientUnits="userSpaceOnUse" gradientTransform="matrix(6.79116 -1.73628 1.15022 4.49888 63.02 45.691)"><stop offset=".521" stop-color="#F7B0B2"></stop><stop offset=".617" stop-color="#F2AEA7"></stop><stop offset=".783" stop-color="#E6A98B"></stop><stop offset="1" stop-color="#D1A15D"></stop></radialGradient><radialGradient id="paint8_radial_11368_50389-uid-10" cx="0" cy="0" r="1" gradientUnits="userSpaceOnUse" gradientTransform="matrix(3.99141 -1.02048 .67603 2.64416 37.87 46.673)"><stop stop-color="#A06069"></stop><stop offset="1" stop-color="#A06069" stop-opacity="0"></stop></radialGradient><radialGradient id="paint9_radial_11368_50389-uid-10" cx="0" cy="0" r="1" gradientUnits="userSpaceOnUse" gradientTransform="matrix(8.40989 4.77962 -3.08712 5.43188 45.328 57.615)"><stop stop-color="#A06069"></stop><stop offset="1" stop-color="#A06069" stop-opacity="0"></stop></radialGradient><radialGradient id="paint10_radial_11368_50389-uid-10" cx="0" cy="0" r="1" gradientUnits="userSpaceOnUse" gradientTransform="matrix(6.79116 -1.73628 1.15022 4.49888 54.693 45.626)"><stop stop-color="#A06069"></stop><stop offset="1" stop-color="#A06069" stop-opacity="0"></stop></radialGradient><radialGradient id="paint11_radial_11368_50389-uid-10" cx="0" cy="0" r="1" gradientUnits="userSpaceOnUse" gradientTransform="matrix(1.82312 -.46613 .49072 1.9193 61.161 38.857)"><stop stop-color="#A06069"></stop><stop offset="1" stop-color="#A06069" stop-opacity="0"></stop></radialGradient><radialGradient id="paint12_radial_11368_50389-uid-10" cx="0" cy="0" r="1" gradientUnits="userSpaceOnUse" gradientTransform="rotate(-109.94 39.245 .614) scale(8.36222 5.54016)"><stop offset=".521" stop-color="#D1A15D" stop-opacity="0"></stop><stop offset="1" stop-color="#D1A15D"></stop></radialGradient><radialGradient id="paint13_radial_11368_50389-uid-10" cx="0" cy="0" r="1" gradientUnits="userSpaceOnUse" gradientTransform="matrix(-1.5805 -6.69803 4.48713 -1.05881 48.352 38.076)"><stop offset=".521" stop-color="#D1A15D" stop-opacity="0"></stop><stop offset="1" stop-color="#D1A15D"></stop></radialGradient><radialGradient id="paint14_radial_11368_50389-uid-10" cx="0" cy="0" r="1" gradientUnits="userSpaceOnUse" gradientTransform="rotate(-109.094 34.85 4.256) scale(9.7236 6.44149)"><stop offset=".521" stop-color="#F7B0B2"></stop><stop offset=".617" stop-color="#F2AEA7"></stop><stop offset=".783" stop-color="#E6A98B"></stop><stop offset="1" stop-color="#D1A15D"></stop></radialGradient><radialGradient id="paint15_radial_11368_50389-uid-10" cx="0" cy="0" r="1" gradientUnits="userSpaceOnUse" gradientTransform="translate(75.906 48.745) scale(24.432)"><stop offset=".52" stop-color="#13544E"></stop><stop offset=".68" stop-color="#114944"></stop><stop offset=".94" stop-color="#0B2D29"></stop><stop offset="1" stop-color="#092622"></stop></radialGradient><radialGradient id="paint16_radial_11368_50389-uid-10" cx="0" cy="0" r="1" gradientUnits="userSpaceOnUse" gradientTransform="translate(79.469 64.34) scale(15.6201)"><stop offset=".52" stop-color="#13544E"></stop><stop offset=".68" stop-color="#114944"></stop><stop offset=".94" stop-color="#0B2D29"></stop><stop offset="1" stop-color="#092622"></stop></radialGradient><radialGradient id="paint17_radial_11368_50389-uid-10" cx="0" cy="0" r="1" gradientUnits="userSpaceOnUse" gradientTransform="translate(102.521 133.708) scale(29.6492)"><stop offset=".295" stop-color="#126B00" stop-opacity=".911"></stop><stop offset="1" stop-color="#126B00" stop-opacity="0"></stop></radialGradient><radialGradient id="paint18_radial_11368_50389-uid-10" cx="0" cy="0" r="1" gradientUnits="userSpaceOnUse" gradientTransform="translate(51.4 116.345) scale(35.8707)"><stop offset=".227" stop-color="#126B00"></stop><stop offset=".295" stop-color="#126B00" stop-opacity=".911"></stop><stop offset="1" stop-color="#126B00" stop-opacity="0"></stop></radialGradient><linearGradient id="paint0_linear_11368_50389-uid-10" x1="36.86" y1="100.684" x2="36.86" y2="0" gradientUnits="userSpaceOnUse"><stop stop-color="#6D2B11"></stop><stop offset=".21" stop-color="#783012"></stop><stop offset=".58" stop-color="#943E14"></stop><stop offset="1" stop-color="#BC5118"></stop></linearGradient><linearGradient id="paint1_linear_11368_50389-uid-10" x1="73.634" y1="48.129" x2="73.634" y2="39.036" gradientUnits="userSpaceOnUse"><stop stop-color="#6D2B11"></stop><stop offset=".21" stop-color="#783012"></stop><stop offset=".58" stop-color="#943E14"></stop><stop offset="1" stop-color="#BC5118"></stop></linearGradient><linearGradient id="paint2_linear_11368_50389-uid-10" x1="119.22" y1="96.496" x2="119.22" y2="0" gradientUnits="userSpaceOnUse"><stop stop-color="#6D2B11"></stop><stop offset=".21" stop-color="#783012"></stop><stop offset=".58" stop-color="#943E14"></stop><stop offset="1" stop-color="#BC5118"></stop></linearGradient><linearGradient id="paint5_linear_11368_50389-uid-10" x1="26.476" y1="68.03" x2="46.615" y2="71.704" gradientUnits="userSpaceOnUse"><stop offset=".33" stop-color="#126B00" stop-opacity="0"></stop><stop offset=".44" stop-color="#126B00" stop-opacity=".1"></stop><stop offset=".64" stop-color="#126B00" stop-opacity=".36"></stop><stop offset=".89" stop-color="#126B00" stop-opacity=".79"></stop><stop offset="1" stop-color="#126B00"></stop></linearGradient><clipPath id="clip0_11368_50389-uid-10"><rect width="145" height="130" fill="#fff"></rect></clipPath></defs></svg>